
      <svg data-logo="logo" xmlns="http://www.w3.org/2000/svg" viewBox="0 0 290 43">
        <g id="logogram" transform="translate(0, 1) rotate(0) "><path d="M0.452637 20.81C0.452637 9.76427 9.40694 0.809967 20.4526 0.809967H46.7026C57.7484 0.809967 66.7026 9.76427 66.7026 20.81V40.81H20.4526C9.40694 40.81 0.452637 31.8557 0.452637 20.81Z" fill="#4845D2"/><path d="M46.7026 8.30997H20.4526C13.5491 8.30997 7.95264 13.9064 7.95264 20.81C7.95264 27.7135 13.5491 33.31 20.4526 33.31H46.7026C53.6062 33.31 59.2026 27.7135 59.2026 20.81C59.2026 13.9064 53.6062 8.30997 46.7026 8.30997Z" fill="#A5B4FC"/><path d="M20.4526 27.06C23.9044 27.06 26.7026 24.2617 26.7026 20.81C26.7026 17.3582 23.9044 14.56 20.4526 14.56C17.0009 14.56 14.2026 17.3582 14.2026 20.81C14.2026 24.2617 17.0009 27.06 20.4526 27.06Z" fill="black"/><path d="M17.9526 19.56C18.643 19.56 19.2026 19.0003 19.2026 18.31C19.2026 17.6196 18.643 17.06 17.9526 17.06C17.2623 17.06 16.7026 17.6196 16.7026 18.31C16.7026 19.0003 17.2623 19.56 17.9526 19.56Z" fill="white"/><path d="M47.9526 27.06C51.4044 27.06 54.2026 24.2617 54.2026 20.81C54.2026 17.3582 51.4044 14.56 47.9526 14.56C44.5009 14.56 41.7026 17.3582 41.7026 20.81C41.7026 24.2617 44.5009 27.06 47.9526 27.06Z" fill="black"/><path d="M45.4526 19.56C46.143 19.56 46.7026 19.0003 46.7026 18.31C46.7026 17.6196 46.143 17.06 45.4526 17.06C44.7623 17.06 44.2026 17.6196 44.2026 18.31C44.2026 19.0003 44.7623 19.56 45.4526 19.56Z" fill="white"/></g>
        <g id="logotype" transform="translate(73, 8.5)"><path fill="#4845D2" d="M31.10 9.20L24.48 9.20Q23.82 7.97 22.57 7.33Q21.33 6.68 19.65 6.68L19.65 6.68Q16.75 6.68 15.00 8.59Q13.25 10.49 13.25 13.68L13.25 13.68Q13.25 17.07 15.08 18.98Q16.92 20.89 20.14 20.89L20.14 20.89Q22.35 20.89 23.87 19.77Q25.39 18.65 26.09 16.55L26.09 16.55L18.50 16.55L18.50 12.14L31.52 12.14L31.52 17.70Q30.85 19.95 29.26 21.87Q27.67 23.80 25.22 24.98Q22.77 26.18 19.69 26.18L19.69 26.18Q16.05 26.18 13.19 24.58Q10.34 22.99 8.75 20.16Q7.16 17.32 7.16 13.68L7.16 13.68Q7.16 10.04 8.75 7.19Q10.34 4.33 13.18 2.74Q16.01 1.15 19.65 1.15L19.65 1.15Q24.06 1.15 27.09 3.28Q30.12 5.42 31.10 9.20L31.10 9.20ZM53.25 15.92Q53.25 16.76 53.15 17.67L53.15 17.67L39.60 17.67Q39.74 19.49 40.77 20.45Q41.81 21.41 43.31 21.41L43.31 21.41Q45.55 21.41 46.43 19.52L46.43 19.52L52.80 19.52Q52.31 21.45 51.03 22.99Q49.75 24.53 47.83 25.41Q45.90 26.28 43.52 26.28L43.52 26.28Q40.65 26.28 38.41 25.05Q36.17 23.83 34.91 21.55Q33.65 19.28 33.65 16.23L33.65 16.23Q33.65 13.19 34.89 10.91Q36.14 8.64 38.38 7.41Q40.62 6.19 43.52 6.19L43.52 6.19Q46.36 6.19 48.56 7.38Q50.77 8.57 52.01 10.77Q53.25 12.98 53.25 15.92L53.25 15.92ZM39.64 14.34L47.13 14.34Q47.13 12.80 46.08 11.89Q45.03 10.98 43.45 10.98L43.45 10.98Q41.95 10.98 40.91 11.86Q39.88 12.73 39.64 14.34L39.64 14.34ZM68.30 6.26Q71.73 6.26 73.78 8.48Q75.83 10.70 75.83 14.59L75.83 14.59L75.83 26L69.88 26L69.88 15.39Q69.88 13.43 68.86 12.35Q67.84 11.26 66.13 11.26L66.13 11.26Q64.42 11.26 63.40 12.35Q62.39 13.43 62.39 15.39L62.39 15.39L62.39 26L56.40 26L56.40 6.47L62.39 6.47L62.39 9.06Q63.30 7.76 64.84 7.01Q66.38 6.26 68.30 6.26L68.30 6.26ZM100.78 1.43L107.82 1.43L107.82 26L101.83 26L101.83 11.26L96.34 26L91.51 26L85.98 11.23L85.98 26L79.99 26L79.99 1.43L87.06 1.43L93.96 18.44L100.78 1.43ZM121.01 26.28Q118.14 26.28 115.85 25.05Q113.56 23.83 112.24 21.55Q110.93 19.28 110.93 16.23L110.93 16.23Q110.93 13.22 112.26 10.93Q113.59 8.64 115.90 7.41Q118.21 6.19 121.08 6.19L121.08 6.19Q123.95 6.19 126.26 7.41Q128.57 8.64 129.90 10.93Q131.23 13.22 131.23 16.23L131.23 16.23Q131.23 19.24 129.88 21.54Q128.54 23.83 126.21 25.05Q123.88 26.28 121.01 26.28L121.01 26.28ZM121.01 21.10Q122.73 21.10 123.93 19.84Q125.14 18.58 125.14 16.23L125.14 16.23Q125.14 13.89 123.97 12.63Q122.80 11.37 121.08 11.37L121.08 11.37Q119.33 11.37 118.18 12.61Q117.02 13.85 117.02 16.23L117.02 16.23Q117.02 18.58 118.16 19.84Q119.30 21.10 121.01 21.10L121.01 21.10ZM133.22 16.23Q133.22 13.19 134.47 10.91Q135.71 8.64 137.93 7.41Q140.16 6.19 143.03 6.19L143.03 6.19Q146.70 6.19 149.17 8.11Q151.63 10.04 152.41 13.54L152.41 13.54L146.03 13.54Q145.23 11.30 142.92 11.30L142.92 11.30Q141.28 11.30 140.30 12.58Q139.31 13.85 139.31 16.23L139.31 16.23Q139.31 18.61 140.30 19.89Q141.28 21.17 142.92 21.17L142.92 21.17Q145.23 21.17 146.03 18.93L146.03 18.93L152.41 18.93Q151.63 22.36 149.15 24.32Q146.67 26.28 143.03 26.28L143.03 26.28Q140.16 26.28 137.93 25.05Q135.71 23.83 134.47 21.55Q133.22 19.28 133.22 16.23L133.22 16.23ZM174.95 26L167.53 26L161.58 17.81L161.58 26L155.59 26L155.59 0.10L161.58 0.10L161.58 14.41L167.49 6.47L174.88 6.47L166.76 16.27L174.95 26ZM201.41 26L199.94 21.66L190.76 21.66L189.29 26L183.03 26L191.92 1.43L198.85 1.43L207.74 26L201.41 26ZM192.34 17.04L198.40 17.04L195.35 8.04L192.34 17.04ZM210.43 1.43L216.42 1.43L216.42 26L210.43 26L210.43 1.43Z"/></g>
        
      </svg>
    